<svg width="48" height="48" viewBox="0 0 48 48" fill="none" xmlns="http://www.w3.org/2000/svg">
<path d="M7.38201 35.416C3.60801 31.32 3.98801 26.06 4.00001 26V10C4.00001 9.46957 4.21072 8.96086 4.58579 8.58579C4.96087 8.21071 5.46957 8 6.00001 8H18C20.206 8 22 9.794 22 12V26C22 26.5304 21.7893 27.0391 21.4142 27.4142C21.0391 27.7893 20.5304 28 20 28H13.844C13.8863 28.9888 14.1817 29.9501 14.702 30.792C15.718 32.394 17.632 33.488 20.394 34.04L22 34.36V40H20C14.434 40 10.188 38.458 7.38201 35.416ZM29.396 35.416C25.62 31.32 26.002 26.06 26.014 26V10C26.014 9.46957 26.2247 8.96086 26.5998 8.58579C26.9749 8.21071 27.4836 8 28.014 8H40.014C42.22 8 44.014 9.794 44.014 12V26C44.014 26.5304 43.8033 27.0391 43.4282 27.4142C43.0531 27.7893 42.5444 28 42.014 28H35.858C35.9003 28.9888 36.1957 29.9501 36.716 30.792C37.732 32.394 39.646 33.488 42.408 34.04L44.014 34.36V40H42.014C36.448 40 32.202 38.458 29.396 35.416Z" fill="white"/>
</svg>
