<svg width="77" height="77" viewBox="0 0 77 77" fill="none" xmlns="http://www.w3.org/2000/svg">
<g clip-path="url(#clip0_198_403)">
<path d="M50.5312 -0.00028483C51.1829 -0.00028483 51.7469 0.237834 52.2231 0.714071L76.2856 24.7766C76.7619 25.2528 77 25.8168 77 26.4685C77 27.1202 76.7619 27.6841 76.2856 28.1604L67.1494 37.2966C67.776 37.9232 68.3901 38.5248 68.9917 39.1013C69.5933 39.6778 70.1196 40.2668 70.5708 40.8684C71.022 41.4699 71.3979 42.1467 71.6987 42.8986C71.9995 43.6506 72.1499 44.4903 72.1499 45.4177C72.1499 46.4203 71.9619 47.3728 71.5859 48.2751C71.21 49.1775 70.6961 49.967 70.0444 50.6438C69.3927 51.3205 68.6283 51.8594 67.751 52.2605C66.8737 52.6615 65.9338 52.8746 64.9312 52.8996C64.881 53.9273 64.668 54.8672 64.292 55.7194C63.916 56.5717 63.4147 57.3236 62.7881 57.9753C62.1615 58.627 61.4095 59.1408 60.5322 59.5168C59.6549 59.8928 58.715 60.0933 57.7124 60.1184C57.6873 61.121 57.4743 62.0609 57.0732 62.9382C56.6722 63.8155 56.1333 64.58 55.4565 65.2317C54.7798 65.8833 53.9902 66.4097 53.0879 66.8108C52.1855 67.2118 51.2331 67.3998 50.2305 67.3747C49.4284 67.3747 48.6138 67.2369 47.7866 66.9611C47.5109 67.7382 47.1475 68.44 46.6963 69.0666C46.2451 69.6932 45.6937 70.2447 45.042 70.7209C44.3903 71.1971 43.701 71.5606 42.9741 71.8112C42.2472 72.0619 41.4577 72.1872 40.6055 72.1872C39.9538 72.1872 39.3773 72.1371 38.876 72.0368C38.3747 71.9366 37.911 71.7611 37.4849 71.5105C37.0588 71.2598 36.6326 70.9841 36.2065 70.6833C35.7804 70.3825 35.3418 70.0191 34.8906 69.593C34.0133 70.3951 33.1611 71.0217 32.334 71.4729C31.5068 71.924 30.4541 72.1622 29.1758 72.1872C28.1732 72.1872 27.2207 71.9992 26.3184 71.6233C25.416 71.2473 24.6265 70.7334 23.9497 70.0817C23.2729 69.4301 22.734 68.6656 22.333 67.7883C21.932 66.911 21.7189 65.9585 21.6938 64.9309C20.7163 64.9058 19.7889 64.7053 18.9116 64.3293C18.0343 63.9533 17.2699 63.4395 16.6182 62.7878C15.9665 62.1361 15.4526 61.3716 15.0767 60.4943C14.7007 59.6171 14.5002 58.6897 14.4751 57.7121C13.4725 57.6871 12.5451 57.4865 11.6929 57.1106C10.8407 56.7346 10.0887 56.2207 9.43701 55.5691C8.78532 54.9174 8.27148 54.1529 7.89551 53.2756C7.51953 52.3983 7.30648 51.4709 7.25635 50.4934C6.22868 50.4683 5.2762 50.2552 4.39893 49.8542C3.52165 49.4532 2.75716 48.9143 2.10547 48.2375C1.45378 47.5608 0.939941 46.7837 0.563965 45.9065C0.187988 45.0292 0 44.0767 0 43.049C0 42.0214 0.187988 41.0564 0.563965 40.154C0.939941 39.2517 1.49137 38.437 2.21826 37.7102L6.20361 33.6872L0.714355 28.1604C0.238118 27.6841 0 27.1202 0 26.4685C0 25.8168 0.238118 25.2528 0.714355 24.7766L24.7769 0.714071C25.2531 0.237834 25.8171 -0.00028483 26.4688 -0.00028483C27.1204 -0.00028483 27.6844 0.237834 28.1606 0.714071L33.1235 5.67696C33.4494 5.5767 34.076 5.36365 35.0034 5.0378C35.9308 4.71195 37.0212 4.34851 38.2744 3.94747C39.5277 3.54643 40.8185 3.10779 42.147 2.63155C43.4754 2.15531 44.7537 1.72921 45.9819 1.35323C47.2101 0.977254 48.2253 0.651408 49.0273 0.375692C49.8294 0.0999756 50.3307 -0.0253499 50.5312 -0.00028483ZM11.7305 36.0935C11.0036 36.0935 10.377 36.3566 9.85059 36.883L5.60205 41.094C5.07568 41.6203 4.8125 42.2595 4.8125 43.0114C4.8125 43.7634 5.06315 44.39 5.56445 44.8913C6.06576 45.3926 6.70492 45.6558 7.48193 45.6809C8.25895 45.6809 8.89811 45.4302 9.39941 44.9289L13.6479 40.718C14.1743 40.1916 14.4375 39.5525 14.4375 38.8005C14.4375 38.0485 14.1743 37.4094 13.6479 36.883C13.1216 36.3566 12.4824 36.0935 11.7305 36.0935ZM18.9492 43.3122C18.5983 43.3122 18.2599 43.3749 17.9341 43.5002C17.6082 43.6255 17.3075 43.826 17.0317 44.1018L12.8208 48.3503C12.2944 48.8767 12.0312 49.5158 12.0312 50.2678C12.0312 50.9947 12.2944 51.6088 12.8208 52.1101C13.3472 52.6114 13.9863 52.8746 14.7383 52.8996C15.0892 52.8996 15.4276 52.837 15.7534 52.7116C16.0793 52.5863 16.38 52.3983 16.6558 52.1477L20.8667 47.8991C21.3931 47.3728 21.6562 46.7461 21.6562 46.0192C21.6562 45.2673 21.3931 44.6281 20.8667 44.1018C20.3403 43.5754 19.7012 43.3122 18.9492 43.3122ZM26.168 50.531C25.4411 50.531 24.8145 50.7942 24.2881 51.3205L20.0396 55.5315C19.5132 56.0578 19.25 56.697 19.25 57.4489C19.25 58.2009 19.5007 58.8275 20.002 59.3288C20.5033 59.8301 21.1424 60.0933 21.9194 60.1184C22.6965 60.1184 23.3356 59.8677 23.8369 59.3664L28.0854 55.1555C28.6118 54.6291 28.875 53.99 28.875 53.238C28.875 52.486 28.6118 51.8469 28.0854 51.3205C27.5591 50.7942 26.9199 50.531 26.168 50.531ZM26.4688 64.7053C26.4688 65.4322 26.7319 66.0463 27.2583 66.5476C27.7847 67.0489 28.4238 67.3121 29.1758 67.3371C29.5267 67.3371 29.8651 67.2745 30.1909 67.1491C30.5168 67.0238 30.8175 66.8358 31.0933 66.5852L35.3042 62.3366C35.8306 61.8103 36.0938 61.1836 36.0938 60.4567C36.0938 59.7048 35.8306 59.0656 35.3042 58.5393C34.7778 58.0129 34.1387 57.7497 33.3867 57.7497C33.0358 57.7497 32.6974 57.8124 32.3716 57.9377C32.0457 58.063 31.745 58.2635 31.4692 58.5393L27.2583 62.7878C26.7319 63.3142 26.4688 63.9533 26.4688 64.7053ZM64.668 48.1247C65.3949 48.1247 66.0215 47.8615 66.5479 47.3352C67.0742 46.8088 67.3499 46.1822 67.375 45.4553C67.375 44.7033 67.1118 44.0642 66.5854 43.5378L42.8237 19.7385C42.7485 19.6633 42.6232 19.6006 42.4478 19.5505C42.2723 19.5004 42.0968 19.4502 41.9214 19.4001C41.7459 19.35 41.5579 19.3124 41.3574 19.2873C41.1569 19.2622 41.0065 19.2497 40.9062 19.2497C40.2546 19.2497 39.6405 19.375 39.064 19.6257C38.4875 19.8763 37.9736 20.2147 37.5225 20.6408C37.0713 21.0669 36.7204 21.5808 36.4697 22.1823C36.2191 22.7839 36.0938 23.4105 36.0938 24.0622C36.0938 25.3907 35.8431 26.6314 35.3418 27.7844C34.8405 28.9374 34.1512 29.965 33.2739 30.8674C32.3966 31.7697 31.3815 32.459 30.2285 32.9353C29.0755 33.4115 27.8223 33.6621 26.4688 33.6872C25.4661 33.6872 24.5262 33.4992 23.6489 33.1232C22.7716 32.7473 22.0072 32.2334 21.3555 31.5817C20.7038 30.9301 20.1899 30.1656 19.814 29.2883C19.438 28.411 19.25 27.4711 19.25 26.4685C19.25 25.8669 19.3127 25.2027 19.438 24.4758C19.5633 23.7489 19.7638 23.0972 20.0396 22.5207L27.0703 8.42159C27.2959 8.02055 27.6343 7.6947 28.0854 7.44405L26.4688 5.82735L5.79004 26.4685L10.8657 31.5065C11.9937 31.3812 13.0589 31.4564 14.0615 31.7321C15.0641 32.0079 15.9414 32.4716 16.6934 33.1232C17.4453 33.7749 18.0469 34.5645 18.498 35.4919C18.9492 36.4193 19.1873 37.4595 19.2124 38.6125C20.215 38.6626 21.1549 38.8632 22.0322 39.2141C22.9095 39.565 23.6615 40.0663 24.2881 40.718C24.9147 41.3697 25.4285 42.1216 25.8296 42.9738C26.2306 43.826 26.4312 44.7785 26.4312 45.8313C27.4338 45.8814 28.3737 46.0819 29.251 46.4328C30.1283 46.7837 30.8802 47.285 31.5068 47.9367C32.1335 48.5884 32.6473 49.3404 33.0483 50.1926C33.4494 51.0448 33.6499 51.9973 33.6499 53.05C34.6776 53.1001 35.63 53.3132 36.5073 53.6892C37.3846 54.0651 38.1491 54.579 38.8008 55.2307C39.4525 55.8824 39.9663 56.6594 40.3423 57.5617C40.7183 58.4641 40.9062 59.4291 40.9062 60.4567C40.9062 61.5847 40.6807 62.6374 40.2295 63.615C39.7783 64.5925 39.1266 65.4447 38.2744 66.1716C38.6504 66.5225 38.9888 66.8108 39.2896 67.0363C39.5903 67.2619 40.029 67.3747 40.6055 67.3747C41.3324 67.3747 41.959 67.1115 42.4854 66.5852C43.0117 66.0588 43.2874 65.4322 43.3125 64.7053C43.3125 63.9533 43.0493 63.3142 42.5229 62.7878L45.9067 59.3664L48.3506 61.7727C48.9271 62.299 49.5537 62.5622 50.2305 62.5622C50.9574 62.5622 51.584 62.299 52.1104 61.7727C52.6367 61.2463 52.9124 60.6197 52.9375 59.8928C52.9375 59.1408 52.6743 58.5017 52.1479 57.9753L47.8994 53.7268L51.3208 50.343L55.5317 54.5539C56.0581 55.0803 56.6973 55.3435 57.4492 55.3435C58.2012 55.3435 58.8403 55.0803 59.3667 54.5539C59.8931 54.0275 60.1562 53.3884 60.1562 52.6364C60.1562 51.8845 59.8931 51.2453 59.3667 50.719L55.1182 46.508L58.5396 43.0866L62.7881 47.3352C63.3145 47.8615 63.9411 48.1247 64.668 48.1247ZM71.1724 26.4685L49.8921 5.15059L30.9429 11.467L24.4009 24.551C24.2756 24.7766 24.1878 25.0899 24.1377 25.4909C24.0876 25.892 24.0625 26.2178 24.0625 26.4685C24.0625 27.1202 24.3006 27.6841 24.7769 28.1604C25.2531 28.6366 25.8171 28.8747 26.4688 28.8747C27.1455 28.8747 27.7721 28.7494 28.3486 28.4987C28.9251 28.2481 29.4264 27.9097 29.8525 27.4836C30.2786 27.0575 30.6296 26.5437 30.9053 25.9421C31.181 25.3405 31.3063 24.7139 31.2812 24.0622C31.2812 22.7338 31.5319 21.493 32.0332 20.34C32.5345 19.1871 33.2238 18.1594 34.1011 17.257C34.9784 16.3547 35.9935 15.6654 37.1465 15.1892C38.2995 14.7129 39.5527 14.4623 40.9062 14.4372C41.3073 14.4372 41.7334 14.4748 42.1846 14.55C42.6357 14.6252 43.112 14.7255 43.6133 14.8508C44.1146 14.9761 44.5532 15.1516 44.9292 15.3772C45.3052 15.6027 45.6686 15.8659 46.0195 16.1667L63.7656 33.9128L71.1724 26.4685Z" fill="white"/>
</g>
<defs>
<clipPath id="clip0_198_403">
<rect width="77" height="77" fill="white"/>
</clipPath>
</defs>
</svg>
