<svg width="64" height="63" viewBox="0 0 64 63" fill="none" xmlns="http://www.w3.org/2000/svg">
<path d="M32 18.6666V31.5L40.125 39.5208" stroke="white" stroke-width="3" stroke-linecap="round" stroke-linejoin="round"/>
<path d="M7.09849 15.0444L4.661 15.054C4.66356 15.6883 4.91971 16.296 5.37375 16.7448C5.82779 17.1936 6.44297 17.4473 7.0855 17.4506L7.09849 15.0444ZM15.36 17.4891C15.6801 17.4906 15.9973 17.4298 16.2937 17.3103C16.59 17.1907 16.8595 17.0147 17.0869 16.7923C17.3143 16.5699 17.4951 16.3055 17.619 16.0141C17.7429 15.7227 17.8074 15.4101 17.8089 15.0941C17.8104 14.7781 17.7488 14.4649 17.6277 14.1724C17.5066 13.8799 17.3283 13.6138 17.103 13.3894C16.8777 13.1649 16.6098 12.9864 16.3147 12.8641C16.0195 12.7418 15.7028 12.6781 15.3827 12.6766L15.36 17.4891ZM9.49374 6.86315C9.49204 6.54715 9.4273 6.23459 9.30323 5.94329C9.17915 5.652 8.99818 5.38768 8.77063 5.16543C8.54308 4.94318 8.27341 4.76735 7.97703 4.64798C7.68064 4.52862 7.36334 4.46805 7.04325 4.46973C6.72315 4.47142 6.40652 4.53532 6.11144 4.65781C5.81637 4.78029 5.54862 4.95895 5.32348 5.18358C5.09834 5.40821 4.92023 5.67442 4.79931 5.967C4.6784 6.25959 4.61704 6.57282 4.61875 6.88881L9.49374 6.86315ZM5.43775 27.6018C5.48445 27.2873 5.46758 26.9668 5.3881 26.6588C5.30863 26.3508 5.16813 26.0614 4.97471 25.8073C4.7813 25.5532 4.5388 25.3394 4.26123 25.1784C3.98366 25.0173 3.67652 24.9121 3.35754 24.8689C3.03856 24.8257 2.71406 24.8452 2.40279 24.9265C2.09152 25.0078 1.79965 25.1491 1.54402 25.3424C1.2884 25.5356 1.07409 25.7769 0.913473 26.0524C0.752857 26.3279 0.649118 26.632 0.608246 26.9473L5.43775 27.6018ZM54.3015 9.48436C41.8865 -2.77148 21.8242 -2.89981 9.49049 9.27902L12.9355 12.6799C23.3355 2.4164 40.3102 2.47736 50.8565 12.8852L54.3015 9.48436ZM9.69849 53.5155C22.1135 65.7714 42.1757 65.8997 54.5095 53.7209L51.0645 50.32C40.6645 60.5835 23.6897 60.5225 13.1435 50.1147L9.69849 53.5155ZM54.5095 53.7209C66.8432 41.5452 66.7165 21.7402 54.3015 9.48436L50.8565 12.8852C61.3995 23.2962 61.4612 40.0534 51.0645 50.32L54.5095 53.7209ZM9.49049 9.27902L5.37275 13.3408L8.821 16.7416L12.9355 12.6799L9.49049 9.27902ZM7.0855 17.4506L15.36 17.4891L15.3827 12.6766L7.1115 12.6381L7.0855 17.4506ZM9.53599 15.0316L9.49374 6.86315L4.61875 6.88881L4.661 15.054L9.53599 15.0316ZM0.604995 26.9441C-0.0627476 31.7649 0.410577 36.6728 1.9878 41.2826C3.56503 45.8924 6.20323 50.0785 9.69524 53.5123L13.1402 50.1115C10.1802 47.2024 7.94384 43.6554 6.60679 39.7492C5.26975 35.8429 4.86847 31.6838 5.4345 27.5986L0.604995 26.9441Z" fill="white"/>
</svg>
