<svg width="71" height="71" viewBox="0 0 71 71" fill="none" xmlns="http://www.w3.org/2000/svg">
<path d="M40.5756 31.9644V25.875M40.5756 31.9644V35.439L40.6205 35.5M40.5756 31.9644C40.5756 33.4306 40.5756 34.5728 40.6205 35.5M40.6205 35.5C40.6782 36.655 40.8034 37.4795 41.0857 38.1918C41.6343 39.5746 42.5904 40.6847 43.7839 41.3263C44.8844 41.9167 46.3057 41.9167 49.1418 41.9167H51.6668C51.9427 41.9167 52.0775 41.9167 52.1673 41.9103C54.2078 41.753 55.3981 39.1671 54.381 37.1106L54.1083 36.6197L54.0442 36.5138L53.8902 36.2475C52.517 33.9664 50.0305 32.975 47.7398 33.7996L47.4799 33.8958M40.5756 35.4358V35.5C40.5756 36.8571 40.5756 37.9063 40.5371 38.7565M40.5371 38.7565C40.489 39.7831 40.3863 40.521 40.1553 41.1627C39.5938 42.7348 38.519 43.986 37.1683 44.6373C36.1513 45.125 34.8647 45.125 32.2917 45.125M40.5371 38.7565L33.6713 30.6875M25.875 25.875V38.7083C25.875 40.4101 25.199 42.0422 23.9956 43.2456C22.7922 44.449 21.1601 45.125 19.4583 45.125" stroke="white" stroke-width="4" stroke-linecap="round" stroke-linejoin="round"/>
<path d="M28.3775 7.75435C30.1838 5.81972 31.0885 4.8508 32.0543 4.3118C33.1072 3.72283 34.2935 3.41357 35.5 3.41357C36.7065 3.41357 37.8928 3.72283 38.9458 4.3118C39.9115 4.8508 40.8162 5.81972 42.6257 7.75435C43.4406 8.62701 43.8449 9.06335 44.3005 9.41305C45.2949 10.1822 46.4767 10.6717 47.7238 10.8311C48.2916 10.9017 48.8884 10.8825 50.0787 10.844C52.7288 10.7541 54.0506 10.7092 55.1158 11.0108C56.2765 11.3414 57.3336 11.9629 58.1869 12.8163C59.0403 13.6697 59.6618 14.7268 59.9924 15.8875C60.2908 16.9462 60.2491 18.2713 60.156 20.9181C60.1175 22.1116 60.0983 22.7084 60.1689 23.2763C60.3293 24.5243 60.8202 25.705 61.587 26.6996C61.9399 27.1519 62.373 27.5594 63.2457 28.3743C65.1803 30.1838 66.1492 31.0886 66.6882 32.0543C67.8817 34.1974 67.8817 36.8026 66.6882 38.9458C66.1492 39.9115 65.1803 40.8162 63.2457 42.6257C62.373 43.4406 61.9367 43.8449 61.587 44.3005C60.8178 45.2949 60.3283 46.4767 60.1689 47.7238C60.0983 48.2916 60.1175 48.8884 60.156 50.0787C60.2459 52.7288 60.2908 54.0506 59.9892 55.1158C59.6614 56.2779 59.0409 57.3364 58.187 58.1903C57.3332 59.0441 56.2747 59.6646 55.1125 59.9924C54.0538 60.2908 52.7288 60.2491 50.0787 60.156C48.8884 60.1175 48.2916 60.0983 47.7238 60.1689C46.4757 60.3293 45.295 60.8202 44.3005 61.587C43.8481 61.9399 43.4406 62.373 42.6257 63.2457C40.8162 65.1803 39.9115 66.1492 38.9458 66.6882C37.8928 67.2772 36.7065 67.5864 35.5 67.5864C34.2935 67.5864 33.1072 67.2772 32.0543 66.6882C31.0885 66.1492 30.1838 65.1803 28.3743 63.2457C27.5594 62.373 27.1551 61.9367 26.6995 61.587C25.7051 60.8178 24.5233 60.3283 23.2763 60.1689C22.7084 60.0983 22.1116 60.1175 20.9181 60.156C18.2713 60.2459 16.9494 60.2908 15.8843 59.9892C14.7221 59.6614 13.6636 59.0409 12.8098 58.187C11.9559 57.3332 11.3354 56.2747 11.0076 55.1125C10.7092 54.0538 10.7509 52.7288 10.844 50.0787C10.8825 48.8884 10.9017 48.2916 10.8311 47.7238C10.6717 46.4767 10.1822 45.2949 9.41304 44.3005C9.06013 43.8481 8.627 43.4406 7.75433 42.6257C5.81971 40.8162 4.85079 39.9115 4.31179 38.9458C3.72281 37.8928 3.41356 36.7065 3.41356 35.5C3.41356 34.2935 3.72281 33.1072 4.31179 32.0543C4.85079 31.0886 5.81971 30.1838 7.75433 28.3743C8.627 27.5594 9.06333 27.1551 9.41304 26.6996C10.1822 25.7051 10.6717 24.5233 10.8311 23.2763C10.9017 22.7084 10.8825 22.1116 10.844 20.9181C10.7541 18.2713 10.7092 16.9494 11.0108 15.8843C11.3386 14.7222 11.9591 13.6636 12.813 12.8098C13.6668 11.956 14.7253 11.3355 15.8875 11.0076C16.9462 10.7092 18.2713 10.7509 20.9181 10.844C22.1116 10.8825 22.7084 10.9017 23.2763 10.8311C24.5243 10.6707 25.705 10.1798 26.6995 9.41305C27.1519 9.06014 27.5626 8.62701 28.3775 7.75435Z" stroke="white" stroke-width="6" stroke-linecap="round" stroke-linejoin="round"/>
</svg>
