<svg width="77" height="77" viewBox="0 0 77 77" fill="none" xmlns="http://www.w3.org/2000/svg">
<path d="M63.9678 25.6667H67.375C69.0768 25.6667 70.7089 26.3427 71.9123 27.5461C73.1156 28.7494 73.7917 30.3815 73.7917 32.0833V44.9167C73.7917 46.6185 73.1156 48.2506 71.9123 49.4539C70.7089 50.6573 69.0768 51.3333 67.375 51.3333H63.9678C63.1863 57.5363 60.1676 63.2407 55.4784 67.3758C50.7892 71.5109 44.752 73.7923 38.5 73.7917V67.375C43.6054 67.375 48.5017 65.3469 52.1118 61.7368C55.7219 58.1267 57.75 53.2304 57.75 48.125V28.875C57.75 23.7696 55.7219 18.8733 52.1118 15.2632C48.5017 11.6531 43.6054 9.62501 38.5 9.62501C33.3946 9.62501 28.4983 11.6531 24.8882 15.2632C21.2781 18.8733 19.25 23.7696 19.25 28.875V51.3333H9.62501C7.9232 51.3333 6.2911 50.6573 5.08774 49.4539C3.88438 48.2506 3.20834 46.6185 3.20834 44.9167V32.0833C3.20834 30.3815 3.88438 28.7494 5.08774 27.5461C6.2911 26.3427 7.9232 25.6667 9.62501 25.6667H13.0323C13.8152 19.4646 16.8344 13.7614 21.5233 9.62717C26.2123 5.49293 32.2487 3.21179 38.5 3.21179C44.7513 3.21179 50.7877 5.49293 55.4767 9.62717C60.1656 13.7614 63.1848 19.4646 63.9678 25.6667ZM9.62501 32.0833V44.9167H12.8333V32.0833H9.62501ZM64.1667 32.0833V44.9167H67.375V32.0833H64.1667ZM24.8967 50.6435L28.2975 45.2022C31.3552 47.118 34.8918 48.1312 38.5 48.125C42.1083 48.1312 45.6449 47.118 48.7025 45.2022L52.1033 50.6435C48.0266 53.1983 43.3111 54.5496 38.5 54.5417C33.6889 54.5496 28.9734 53.1983 24.8967 50.6435Z" fill="white"/>
</svg>
