<svg width="182" height="41" viewBox="0 0 182 41" fill="none" xmlns="http://www.w3.org/2000/svg">
<path d="M117.176 8.78546V18.7457C117.176 28.4051 117.189 28.7344 117.603 29.6365C118.146 30.8198 119.456 32.006 120.647 32.3929C121.156 32.5586 122.149 32.701 122.852 32.7093L124.13 32.7245V30.6757V28.6268H122.918C121.852 28.6268 121.654 28.5582 121.281 28.0586C120.867 27.5036 120.858 27.2729 120.858 18.1379V8.78551H119.017L117.176 8.78546ZM146.014 8.78546V20.755V32.7244H147.855H149.696V20.755V8.78546H147.855H146.014ZM59.0909 10.2665L51.4724 10.3347L43.8538 10.4029L42.7781 11.0007C41.5037 11.7088 40.5958 12.932 40.1532 14.5377C39.893 15.4813 39.8498 16.8007 39.9059 22.0999C39.9659 27.7691 40.0184 28.6262 40.3525 29.4389C40.8365 30.6161 42.3238 31.9979 43.5282 32.3891C44.259 32.6265 46.0883 32.6975 51.7792 32.7092L59.0909 32.7244V30.6755V28.6267H51.8303C44.8424 28.6267 44.5543 28.6104 44.1606 28.1954C43.7706 27.7842 43.7515 27.4762 43.7515 21.6074V15.4513L44.2533 14.9218L44.7554 14.3927H51.923H59.0909V12.3296V10.2665ZM64.4086 15.8747V17.8296V19.7845H68.9956H73.5823L74.0065 20.3527C74.395 20.8735 74.4303 21.2073 74.4303 24.3522C74.4303 29.116 74.7419 28.8425 69.3172 28.8425C65.2272 28.8425 65.2055 28.8396 64.7058 28.313C64.0416 27.6126 64.0416 26.6212 64.7058 25.9208C65.2027 25.3972 65.2464 25.3918 69.0008 25.3918H72.7941V23.4352V21.4786L68.5502 21.5482C64.6451 21.6122 64.2393 21.6555 63.4687 22.0903C62.4815 22.6473 61.4163 23.8649 60.9724 24.9445C60.4925 26.1116 60.5483 28.5313 61.0795 29.5974C61.7069 30.8565 62.7988 31.8625 64.0367 32.3218C64.9954 32.6775 65.6697 32.7189 69.7262 32.671C74.8031 32.6111 75.1232 32.5389 76.478 31.1508C77.7932 29.8034 78.0006 28.9669 78.0766 24.6981C78.1577 20.1436 77.9414 19.0238 76.7244 17.7016C75.2388 16.0873 74.9516 16.0188 69.3683 15.9425L64.4086 15.8747ZM158.44 15.8906L154.986 18.8308C153.086 20.4479 151.34 22.0276 151.107 22.3412C150.234 23.5111 150.509 23.9526 154.953 28.5316L159.002 32.7029L161.763 32.7025L164.524 32.7021L160.046 28.1095L155.569 23.5165L159.991 19.7634L164.412 16.0103L161.426 15.9504L158.44 15.8906ZM94.0647 15.9021L88.9005 15.905C83.9025 15.9069 83.7033 15.9233 82.7136 16.4155C80.9595 17.2877 80.1533 18.6391 80.1614 20.6943C80.1696 22.7581 81.4492 24.6601 83.1682 25.1635C83.5931 25.2879 85.6204 25.3903 87.6733 25.3909C91.1324 25.3917 91.4359 25.4237 91.815 25.8235C92.0682 26.0905 92.224 26.5424 92.224 27.0097C92.224 27.4769 92.0682 27.9288 91.815 28.1958C91.4261 28.6059 91.1332 28.6272 85.8837 28.6272H80.3616V30.676V32.7244H85.8466C92.0927 32.7244 92.92 32.5821 94.296 31.2712C95.5672 30.0602 95.9869 29.0275 95.983 27.1171C95.9784 24.6174 95.0306 22.9129 93.0841 21.9019C92.1946 21.4399 91.8154 21.3965 88.0824 21.3286L84.043 21.2549V20.6277V20.0001H89.0539H94.0647V17.9513V15.9021ZM100.814 15.9025V17.8435V19.7845H105.37C109.163 19.7845 110.003 19.8408 110.381 20.1202C110.821 20.4453 110.836 20.5749 110.836 24.2179C110.836 29.2325 111.255 28.8425 105.863 28.8425C101.965 28.8425 101.681 28.8154 101.261 28.4027C100.596 27.749 100.643 26.4274 101.353 25.8387C101.854 25.4234 102.158 25.3918 105.648 25.3918H109.404V23.4508V21.5098H105.555C100.914 21.5098 99.9857 21.7246 98.6794 23.1021C95.925 26.0065 97.0068 31.2134 100.61 32.393C101.888 32.8115 109.994 32.8297 111.092 32.4166C112.223 31.9908 113.207 31.1159 113.848 29.9671C114.409 28.9611 114.416 28.9036 114.483 24.637C114.524 21.965 114.466 20.0278 114.33 19.5461C113.976 18.2958 112.629 16.8577 111.333 16.3465C110.316 15.9453 109.751 15.9025 105.51 15.9025L100.814 15.9025ZM168.307 15.9025V17.8435V19.7845H172.909C177.238 19.7845 177.535 19.8101 177.92 20.2158C178.297 20.6133 178.329 20.9347 178.329 24.3135C178.329 29.2169 178.74 28.8425 173.357 28.8425C169.459 28.8425 169.175 28.8154 168.755 28.4027C168.448 28.1013 168.308 27.7112 168.311 27.1626C168.317 25.5351 168.704 25.3918 173.1 25.3918H176.693V23.4508V21.5098H172.942C168.84 21.5098 167.783 21.7045 166.564 22.685C164.791 24.111 164.104 27.1608 165.04 29.4537C165.594 30.8113 166.801 31.9717 168.096 32.393C169.383 32.8113 177.488 32.8295 178.585 32.4166C179.717 31.9908 180.701 31.1159 181.341 29.9671C181.903 28.9599 181.909 28.908 181.974 24.6054C182.036 20.5141 182.014 20.1959 181.587 19.1505C181.328 18.5143 180.787 17.727 180.321 17.3064C178.915 16.0374 178.208 15.9025 172.975 15.9025L168.307 15.9025ZM137.31 15.9328C136.467 15.9129 135.408 15.9212 134.042 15.9415C128.814 16.0182 128.455 16.1069 127.067 17.663C125.724 19.1697 125.664 19.4497 125.664 24.2059C125.664 28.2913 125.689 28.573 126.142 29.5428C126.737 30.8157 128.02 31.9976 129.237 32.3932C129.895 32.607 131.383 32.6989 134.37 32.7095C139.273 32.727 140.131 32.5488 141.571 31.2121C143.062 29.8281 143.253 29.0468 143.253 24.3137C143.253 19.5471 143.072 18.8217 141.511 17.3416C140.422 16.3091 139.838 15.9927 137.31 15.9328ZM134.458 20.0001C138.747 20.0001 138.839 20.0098 139.151 20.4795C139.407 20.8641 139.469 21.6309 139.469 24.3615C139.469 27.4766 139.435 27.8006 139.06 28.1955C138.678 28.5987 138.379 28.6268 134.458 28.6268C129.055 28.6268 129.448 28.9609 129.448 24.3615C129.448 21.6309 129.51 20.8641 129.766 20.4795C130.078 20.0095 130.17 20.0001 134.458 20.0001Z" fill="white"/>
<path d="M16.3807 0.766332C15.1756 0.716011 14.0386 0.831561 12.6267 1.13073C8.43814 2.01814 4.91902 4.55763 2.48177 8.45152C-0.180981 12.7057 -0.748124 18.4764 1.00893 23.4387C1.71747 25.4398 3.18374 27.9627 3.90935 28.4292C4.0467 28.5177 4.25003 28.5892 4.36107 28.5883C4.94175 28.5835 5.17735 28.3595 10.5994 22.6481L15.9091 17.0551L21.2188 22.6437C24.767 26.3783 26.6412 28.2918 26.8684 28.4115C27.5761 28.7843 28.0085 28.5487 28.8161 27.35C30.2453 25.2288 31.2095 22.7544 31.6177 20.1603C31.7974 19.0181 31.8582 16.9037 31.7437 15.7748C31.4377 12.7578 30.3664 9.85454 28.6803 7.47324C28.1031 6.65801 26.7061 5.13566 25.9228 4.46822C23.5418 2.43933 20.8391 1.26835 17.6212 0.871438C17.1917 0.818519 16.7824 0.783036 16.3807 0.766332ZM15.6725 3.43056C16.0125 3.42075 16.3358 3.43249 16.6362 3.46847C20.2849 3.89696 23.1416 5.2437 25.3914 7.59599C26.8094 9.07852 27.9165 10.9592 28.5541 12.9687C29.7843 16.8452 29.4206 21.0457 27.572 24.3123C27.3241 24.7503 27.096 25.0971 27.0652 25.0828C26.9543 25.031 24.6042 22.4091 24.3779 22.0847C24.0895 21.6714 24.0899 21.55 24.3825 20.7564C24.7295 19.8133 24.8882 18.8898 24.8947 17.776C24.902 16.6335 24.7829 15.8132 24.4593 14.7649C23.5132 11.7004 21.131 9.32806 18.1931 8.52505C17.2146 8.25756 15.6127 8.16524 14.6167 8.3188C13.2616 8.52774 11.9949 9.0332 10.8444 9.82447C10.2371 10.2421 8.92181 11.6276 8.49127 12.3031C6.7968 14.9617 6.43376 18.0963 7.48908 20.9563L7.70422 21.5394L7.52441 21.893C7.42554 22.0874 6.75462 22.894 6.03374 23.6854L4.72321 25.1242L4.42746 24.6547C3.96793 23.9249 3.48942 22.8658 3.19121 21.9187C1.87224 17.73 2.55609 12.9435 4.98724 9.34832C5.69212 8.3059 7.02422 6.9009 7.99554 6.17531C10.0841 4.61514 13.2925 3.49667 15.6725 3.43056ZM15.8546 10.9117C17.0712 10.9006 18.2719 11.2803 19.4073 12.0447C20.7595 12.9549 21.7655 14.4161 22.1809 16.0729C22.3761 16.8509 22.3731 18.3287 22.1745 19.032C22.0922 19.3247 22.003 19.5642 21.9764 19.5642C21.9498 19.5642 20.7645 18.3419 19.3423 16.8481C17.7041 15.1274 16.6318 14.0663 16.4165 13.9528C15.612 13.5288 15.4009 13.6836 12.4031 16.8925C11.0303 18.362 9.87797 19.5642 9.84228 19.5642C9.7185 19.5642 9.51908 18.6661 9.47288 17.9007C9.30518 15.1214 11.0542 12.3856 13.6575 11.3551C14.3884 11.0658 15.1246 10.9184 15.8546 10.9117ZM17.4933 24.3328C16.3838 24.3328 16.3937 24.3218 16.3937 25.525C16.3937 26.252 16.4208 26.4781 16.5205 26.5833C16.6213 26.6897 16.8412 26.7172 17.5946 26.7172C18.2236 26.7172 18.5742 26.6827 18.6386 26.615C18.7014 26.5487 18.7357 26.2036 18.7357 25.6319C18.7357 24.8101 18.7223 24.7368 18.5374 24.5418C18.3522 24.3465 18.2837 24.3328 17.4933 24.3328ZM14.9263 24.3427C14.7586 24.3304 14.5343 24.3378 14.2346 24.3475C13.4324 24.372 13.2967 24.3972 13.1972 24.5409C13.0488 24.7552 13.0342 26.462 13.1796 26.6152C13.244 26.683 13.5949 26.7174 14.2248 26.7174C15.4245 26.7174 15.4247 26.7171 15.4247 25.4697C15.4247 24.5939 15.4291 24.3795 14.9263 24.3427ZM17.5922 27.739C17.1608 27.739 16.7147 27.7764 16.6008 27.8221C16.3939 27.9051 16.3937 27.9065 16.3937 28.9547C16.3937 29.6574 16.4256 30.0378 16.4905 30.1063C16.5551 30.1745 16.9122 30.2087 17.5646 30.2087C18.2169 30.2087 18.5738 30.1745 18.6385 30.1063C18.7028 30.0383 18.7355 29.6683 18.7355 29.0041C18.7355 27.7453 18.7292 27.739 17.5922 27.739ZM14.3715 27.74C13.9042 27.7289 13.4176 27.7663 13.2814 27.8603C13.0889 27.9934 13.0827 28.0289 13.0827 29.0005C13.0827 29.6669 13.1151 30.0376 13.1795 30.1055C13.2442 30.1737 13.6013 30.2077 14.2536 30.2077C14.9059 30.2077 15.2628 30.1736 15.3276 30.1055C15.4454 29.9813 15.4609 28.1011 15.3457 27.9086C15.2867 27.8099 14.8387 27.7509 14.3715 27.74ZM10.1851 32.0007C10.1152 32.001 10.0442 32.0105 9.9668 32.0231C9.39073 32.1217 8.88339 32.7333 8.88339 33.3289C8.88339 33.4561 8.95517 33.7167 9.04316 33.9082C9.24844 34.3553 14.9255 40.3305 15.3842 40.5822C16.1454 40.9998 16.2667 40.9085 19.6012 37.4173C21.1655 35.7794 22.5357 34.3017 22.6461 34.1332C22.9473 33.6732 22.9837 33.2271 22.7578 32.7627C22.4391 32.1078 21.7547 31.8376 21.121 32.1168C20.9571 32.1891 19.8533 33.276 18.376 34.8204L15.9054 37.4033L13.4303 34.8289C11.1209 32.4266 10.6752 31.9991 10.1851 32.0007Z" fill="white"/>
</svg>
